<svg xmlns="http://www.w3.org/2000/svg" width="1200" height="210" viewBox="0 0 1200 210"><rect width="100%" height="100%" rx="18" fill="#0D1117"/><rect x="1" y="1" width="1198" height="208" rx="18" fill="none" stroke="#30363D"/><text x="44" y="48" fill="#F0F6FC" font-family="Arial,sans-serif" font-size="23" font-weight="700">GITHUB // ACTIVITY</text><text x="44" y="78" fill="#8B949E" font-family="Arial,sans-serif" font-size="15">45 contributions · 2026 · 20 active days</text><text x="1040" y="48" fill="#58A6FF" font-family="Arial,sans-serif" font-size="14">● LIVE</text><line x1="44" y1="100" x2="1156" y2="100" stroke="#21262D"/><text x="44" y="130" fill="#8B949E" font-family="monospace" font-size="13">ACTIVITY SIGNAL</text><path d="M44 168 L64 158 L80 161 L96 160 L112 162 L128 157 L144 160 L160 168 L176 156 L192 156 L208 156 L224 166 L240 159 L256 158 L272 163 L288 162 L304 167 L320 162 L336 160 L352 159 L368 163 L384 157 L400 159 L416 158 L432 162 L448 162 L464 164 L480 156 L496 160 L512 156 L528 158 L544 158 L560 158 L576 160 L592 166 L608 163 L624 164 L640 167 L656 168 L672 167 L688 159 L704 157 L720 156 L736 162 L752 160 L768 162 L784 167 L800 165 L816 159 L832 164 L848 159 L864 162 L880 168 L896 158 L912 167 L928 166 L944 165 L960 157 L976 166 L992 167 L1008 162 L1024 156 L1040 162 L1056 165 L1072 161 L1088 156 L1104 166 L1120 165 L1136 167 L1152 157" fill="none" stroke="#58A6FF" stroke-width="2" opacity="0.35"/><circle cx="163" cy="128" r="6" fill="#58A6FF" opacity="0.9299999999999999"/><circle cx="619" cy="145" r="5" fill="#58A6FF" opacity="0.81"/><circle cx="102" cy="155" r="4" fill="#58A6FF" opacity="0.69"/><circle cx="445" cy="154" r="3" fill="#58A6FF" opacity="0.5700000000000001"/><circle cx="576" cy="142" r="4" fill="#58A6FF" opacity="0.69"/><circle cx="268" cy="164" r="4" fill="#58A6FF" opacity="0.69"/><circle cx="175" cy="158" r="3" fill="#58A6FF" opacity="0.5700000000000001"/><circle cx="874" cy="155" r="4" fill="#58A6FF" opacity="0.69"/><circle cx="182" cy="159" r="4" fill="#58A6FF" opacity="0.69"/><circle cx="631" cy="168" r="6" fill="#58A6FF" opacity="0.9299999999999999"/><circle cx="623" cy="142" r="3" fill="#58A6FF" opacity="0.5700000000000001"/><circle cx="80" cy="142" r="5" fill="#58A6FF" opacity="0.81"/><circle cx="367" cy="135" r="6" fill="#58A6FF" opacity="0.9299999999999999"/><circle cx="805" cy="138" r="3" fill="#58A6FF" opacity="0.5700000000000001"/><circle cx="756" cy="132" r="4" fill="#58A6FF" opacity="0.69"/><circle cx="594" cy="134" r="6" fill="#58A6FF" opacity="0.9299999999999999"/><circle cx="670" cy="150" r="4" fill="#58A6FF" opacity="0.69"/><circle cx="1058" cy="144" r="3" fill="#58A6FF" opacity="0.5700000000000001"/><circle cx="841" cy="131" r="5" fill="#58A6FF" opacity="0.81"/><circle cx="338" cy="144" r="3" fill="#58A6FF" opacity="0.5700000000000001"/><text x="44" y="193" fill="#58A6FF" font-family="monospace" font-size="12">BUILD · LEARN · EXPERIMENT · REPEAT</text></svg>