<svg xmlns="http://www.w3.org/2000/svg" width="1200" height="210" viewBox="0 0 1200 210"><rect width="100%" height="100%" rx="18" fill="#0D1117"/><rect x="1" y="1" width="1198" height="208" rx="18" fill="none" stroke="#30363D"/><text x="44" y="48" fill="#F0F6FC" font-family="Arial,sans-serif" font-size="23" font-weight="700">GITHUB // ACTIVITY</text><text x="44" y="78" fill="#8B949E" font-family="Arial,sans-serif" font-size="15">72 contributions · 2026 · 35 active days</text><text x="1040" y="48" fill="#58A6FF" font-family="Arial,sans-serif" font-size="14">● LIVE</text><line x1="44" y1="100" x2="1156" y2="100" stroke="#21262D"/><text x="44" y="130" fill="#8B949E" font-family="monospace" font-size="13">ACTIVITY SIGNAL</text><path d="M44 168 L64 162 L80 168 L96 158 L112 167 L128 166 L144 165 L160 157 L176 166 L192 167 L208 162 L224 156 L240 162 L256 165 L272 161 L288 156 L304 166 L320 165 L336 167 L352 157 L368 166 L384 159 L400 160 L416 168 L432 164 L448 163 L464 161 L480 160 L496 156 L512 159 L528 165 L544 160 L560 160 L576 165 L592 157 L608 159 L624 168 L640 160 L656 166 L672 167 L688 156 L704 165 L720 162 L736 161 L752 164 L768 162 L784 162 L800 162 L816 157 L832 159 L848 158 L864 164 L880 162 L896 159 L912 161 L928 162 L944 166 L960 158 L976 158 L992 156 L1008 160 L1024 167 L1040 161 L1056 168 L1072 167 L1088 161 L1104 165 L1120 165 L1136 163 L1152 157" fill="none" stroke="#58A6FF" stroke-width="2" opacity="0.35"/><circle cx="163" cy="128" r="5" fill="#58A6FF" opacity="0.81"/><circle cx="619" cy="145" r="4" fill="#58A6FF" opacity="0.69"/><circle cx="102" cy="155" r="4" fill="#58A6FF" opacity="0.69"/><circle cx="445" cy="154" r="4" fill="#58A6FF" opacity="0.69"/><circle cx="576" cy="142" r="4" fill="#58A6FF" opacity="0.69"/><circle cx="268" cy="164" r="3" fill="#58A6FF" opacity="0.5700000000000001"/><circle cx="175" cy="158" r="4" fill="#58A6FF" opacity="0.69"/><circle cx="874" cy="155" r="4" fill="#58A6FF" opacity="0.69"/><circle cx="182" cy="159" r="4" fill="#58A6FF" opacity="0.69"/><circle cx="631" cy="168" r="3" fill="#58A6FF" opacity="0.5700000000000001"/><circle cx="623" cy="142" r="3" fill="#58A6FF" opacity="0.5700000000000001"/><circle cx="80" cy="142" r="4" fill="#58A6FF" opacity="0.69"/><circle cx="367" cy="135" r="4" fill="#58A6FF" opacity="0.69"/><circle cx="805" cy="138" r="5" fill="#58A6FF" opacity="0.81"/><circle cx="756" cy="132" r="5" fill="#58A6FF" opacity="0.81"/><circle cx="594" cy="134" r="6" fill="#58A6FF" opacity="0.9299999999999999"/><circle cx="670" cy="150" r="3" fill="#58A6FF" opacity="0.5700000000000001"/><circle cx="1058" cy="144" r="5" fill="#58A6FF" opacity="0.81"/><circle cx="841" cy="131" r="3" fill="#58A6FF" opacity="0.5700000000000001"/><circle cx="338" cy="144" r="3" fill="#58A6FF" opacity="0.5700000000000001"/><circle cx="997" cy="160" r="6" fill="#58A6FF" opacity="0.9299999999999999"/><circle cx="854" cy="171" r="3" fill="#58A6FF" opacity="0.5700000000000001"/><circle cx="119" cy="135" r="4" fill="#58A6FF" opacity="0.69"/><circle cx="801" cy="151" r="4" fill="#58A6FF" opacity="0.69"/><circle cx="214" cy="150" r="6" fill="#58A6FF" opacity="0.9299999999999999"/><circle cx="779" cy="170" r="4" fill="#58A6FF" opacity="0.69"/><circle cx="903" cy="149" r="6" fill="#58A6FF" opacity="0.9299999999999999"/><circle cx="611" cy="157" r="4" fill="#58A6FF" opacity="0.69"/><circle cx="346" cy="148" r="3" fill="#58A6FF" opacity="0.5700000000000001"/><circle cx="636" cy="130" r="3" fill="#58A6FF" opacity="0.5700000000000001"/><circle cx="96" cy="129" r="3" fill="#58A6FF" opacity="0.5700000000000001"/><circle cx="917" cy="158" r="4" fill="#58A6FF" opacity="0.69"/><circle cx="845" cy="131" r="3" fill="#58A6FF" opacity="0.5700000000000001"/><circle cx="511" cy="164" r="5" fill="#58A6FF" opacity="0.81"/><circle cx="636" cy="164" r="4" fill="#58A6FF" opacity="0.69"/><text x="44" y="193" fill="#58A6FF" font-family="monospace" font-size="12">BUILD · LEARN · EXPERIMENT · REPEAT</text></svg>