<svg xmlns="http://www.w3.org/2000/svg" width="1200" height="210" viewBox="0 0 1200 210"><rect width="100%" height="100%" rx="18" fill="#0D1117"/><rect x="1" y="1" width="1198" height="208" rx="18" fill="none" stroke="#30363D"/><text x="44" y="48" fill="#F0F6FC" font-family="Arial,sans-serif" font-size="23" font-weight="700">GITHUB // ACTIVITY</text><text x="44" y="78" fill="#8B949E" font-family="Arial,sans-serif" font-size="15">78 contributions · 2026 · 37 active days</text><text x="1040" y="48" fill="#58A6FF" font-family="Arial,sans-serif" font-size="14">● LIVE</text><line x1="44" y1="100" x2="1156" y2="100" stroke="#21262D"/><text x="44" y="130" fill="#8B949E" font-family="monospace" font-size="13">ACTIVITY SIGNAL</text><path d="M44 168 L64 165 L80 157 L96 166 L112 167 L128 162 L144 156 L160 162 L176 165 L192 161 L208 156 L224 166 L240 165 L256 167 L272 157 L288 166 L304 159 L320 160 L336 168 L352 164 L368 163 L384 161 L400 160 L416 156 L432 159 L448 165 L464 160 L480 160 L496 165 L512 157 L528 159 L544 168 L560 160 L576 166 L592 167 L608 156 L624 165 L640 162 L656 161 L672 164 L688 162 L704 162 L720 162 L736 157 L752 159 L768 158 L784 164 L800 162 L816 159 L832 161 L848 162 L864 166 L880 158 L896 158 L912 156 L928 160 L944 167 L960 161 L976 168 L992 167 L1008 161 L1024 165 L1040 165 L1056 163 L1072 157 L1088 166 L1104 168 L1120 159 L1136 163 L1152 166" fill="none" stroke="#58A6FF" stroke-width="2" opacity="0.35"/><circle cx="163" cy="128" r="5" fill="#58A6FF" opacity="0.81"/><circle cx="619" cy="145" r="4" fill="#58A6FF" opacity="0.69"/><circle cx="102" cy="155" r="4" fill="#58A6FF" opacity="0.69"/><circle cx="445" cy="154" r="4" fill="#58A6FF" opacity="0.69"/><circle cx="576" cy="142" r="4" fill="#58A6FF" opacity="0.69"/><circle cx="268" cy="164" r="3" fill="#58A6FF" opacity="0.5700000000000001"/><circle cx="175" cy="158" r="4" fill="#58A6FF" opacity="0.69"/><circle cx="874" cy="155" r="4" fill="#58A6FF" opacity="0.69"/><circle cx="182" cy="159" r="4" fill="#58A6FF" opacity="0.69"/><circle cx="631" cy="168" r="3" fill="#58A6FF" opacity="0.5700000000000001"/><circle cx="623" cy="142" r="3" fill="#58A6FF" opacity="0.5700000000000001"/><circle cx="80" cy="142" r="4" fill="#58A6FF" opacity="0.69"/><circle cx="367" cy="135" r="4" fill="#58A6FF" opacity="0.69"/><circle cx="805" cy="138" r="5" fill="#58A6FF" opacity="0.81"/><circle cx="756" cy="132" r="5" fill="#58A6FF" opacity="0.81"/><circle cx="594" cy="134" r="6" fill="#58A6FF" opacity="0.9299999999999999"/><circle cx="670" cy="150" r="3" fill="#58A6FF" opacity="0.5700000000000001"/><circle cx="1058" cy="144" r="5" fill="#58A6FF" opacity="0.81"/><circle cx="841" cy="131" r="3" fill="#58A6FF" opacity="0.5700000000000001"/><circle cx="338" cy="144" r="3" fill="#58A6FF" opacity="0.5700000000000001"/><circle cx="997" cy="160" r="6" fill="#58A6FF" opacity="0.9299999999999999"/><circle cx="854" cy="171" r="3" fill="#58A6FF" opacity="0.5700000000000001"/><circle cx="119" cy="135" r="4" fill="#58A6FF" opacity="0.69"/><circle cx="801" cy="151" r="4" fill="#58A6FF" opacity="0.69"/><circle cx="214" cy="150" r="6" fill="#58A6FF" opacity="0.9299999999999999"/><circle cx="779" cy="170" r="6" fill="#58A6FF" opacity="0.9299999999999999"/><circle cx="903" cy="149" r="6" fill="#58A6FF" opacity="0.9299999999999999"/><circle cx="611" cy="157" r="4" fill="#58A6FF" opacity="0.69"/><circle cx="346" cy="148" r="3" fill="#58A6FF" opacity="0.5700000000000001"/><circle cx="636" cy="130" r="3" fill="#58A6FF" opacity="0.5700000000000001"/><circle cx="96" cy="129" r="4" fill="#58A6FF" opacity="0.69"/><circle cx="917" cy="158" r="3" fill="#58A6FF" opacity="0.5700000000000001"/><circle cx="845" cy="131" r="4" fill="#58A6FF" opacity="0.69"/><circle cx="511" cy="164" r="3" fill="#58A6FF" opacity="0.5700000000000001"/><circle cx="636" cy="164" r="5" fill="#58A6FF" opacity="0.81"/><circle cx="893" cy="127" r="4" fill="#58A6FF" opacity="0.69"/><circle cx="228" cy="135" r="4" fill="#58A6FF" opacity="0.69"/><text x="44" y="193" fill="#58A6FF" font-family="monospace" font-size="12">BUILD · LEARN · EXPERIMENT · REPEAT</text></svg>