<svg xmlns="http://www.w3.org/2000/svg" width="1200" height="210" viewBox="0 0 1200 210"><rect width="100%" height="100%" rx="18" fill="#0D1117"/><rect x="1" y="1" width="1198" height="208" rx="18" fill="none" stroke="#30363D"/><text x="44" y="48" fill="#F0F6FC" font-family="Arial,sans-serif" font-size="23" font-weight="700">GITHUB // ACTIVITY</text><text x="44" y="78" fill="#8B949E" font-family="Arial,sans-serif" font-size="15">69 contributions · 2026 · 33 active days</text><text x="1040" y="48" fill="#58A6FF" font-family="Arial,sans-serif" font-size="14">● LIVE</text><line x1="44" y1="100" x2="1156" y2="100" stroke="#21262D"/><text x="44" y="130" fill="#8B949E" font-family="monospace" font-size="13">ACTIVITY SIGNAL</text><path d="M44 168 L64 165 L80 159 L96 164 L112 159 L128 162 L144 168 L160 158 L176 167 L192 166 L208 165 L224 157 L240 166 L256 167 L272 162 L288 156 L304 162 L320 165 L336 161 L352 156 L368 166 L384 165 L400 167 L416 157 L432 166 L448 159 L464 160 L480 168 L496 164 L512 163 L528 161 L544 160 L560 156 L576 159 L592 165 L608 160 L624 160 L640 165 L656 157 L672 159 L688 168 L704 160 L720 166 L736 167 L752 156 L768 165 L784 162 L800 161 L816 164 L832 162 L848 162 L864 162 L880 157 L896 159 L912 158 L928 164 L944 162 L960 159 L976 161 L992 162 L1008 166 L1024 158 L1040 158 L1056 156 L1072 160 L1088 167 L1104 161 L1120 168 L1136 167 L1152 161" fill="none" stroke="#58A6FF" stroke-width="2" opacity="0.35"/><circle cx="163" cy="128" r="5" fill="#58A6FF" opacity="0.81"/><circle cx="619" cy="145" r="4" fill="#58A6FF" opacity="0.69"/><circle cx="102" cy="155" r="4" fill="#58A6FF" opacity="0.69"/><circle cx="445" cy="154" r="4" fill="#58A6FF" opacity="0.69"/><circle cx="576" cy="142" r="4" fill="#58A6FF" opacity="0.69"/><circle cx="268" cy="164" r="3" fill="#58A6FF" opacity="0.5700000000000001"/><circle cx="175" cy="158" r="4" fill="#58A6FF" opacity="0.69"/><circle cx="874" cy="155" r="4" fill="#58A6FF" opacity="0.69"/><circle cx="182" cy="159" r="4" fill="#58A6FF" opacity="0.69"/><circle cx="631" cy="168" r="3" fill="#58A6FF" opacity="0.5700000000000001"/><circle cx="623" cy="142" r="3" fill="#58A6FF" opacity="0.5700000000000001"/><circle cx="80" cy="142" r="4" fill="#58A6FF" opacity="0.69"/><circle cx="367" cy="135" r="4" fill="#58A6FF" opacity="0.69"/><circle cx="805" cy="138" r="5" fill="#58A6FF" opacity="0.81"/><circle cx="756" cy="132" r="5" fill="#58A6FF" opacity="0.81"/><circle cx="594" cy="134" r="6" fill="#58A6FF" opacity="0.9299999999999999"/><circle cx="670" cy="150" r="3" fill="#58A6FF" opacity="0.5700000000000001"/><circle cx="1058" cy="144" r="5" fill="#58A6FF" opacity="0.81"/><circle cx="841" cy="131" r="3" fill="#58A6FF" opacity="0.5700000000000001"/><circle cx="338" cy="144" r="6" fill="#58A6FF" opacity="0.9299999999999999"/><circle cx="997" cy="160" r="3" fill="#58A6FF" opacity="0.5700000000000001"/><circle cx="854" cy="171" r="4" fill="#58A6FF" opacity="0.69"/><circle cx="119" cy="135" r="4" fill="#58A6FF" opacity="0.69"/><circle cx="801" cy="151" r="6" fill="#58A6FF" opacity="0.9299999999999999"/><circle cx="214" cy="150" r="6" fill="#58A6FF" opacity="0.9299999999999999"/><circle cx="779" cy="170" r="4" fill="#58A6FF" opacity="0.69"/><circle cx="903" cy="149" r="3" fill="#58A6FF" opacity="0.5700000000000001"/><circle cx="611" cy="157" r="3" fill="#58A6FF" opacity="0.5700000000000001"/><circle cx="346" cy="148" r="3" fill="#58A6FF" opacity="0.5700000000000001"/><circle cx="636" cy="130" r="4" fill="#58A6FF" opacity="0.69"/><circle cx="96" cy="129" r="3" fill="#58A6FF" opacity="0.5700000000000001"/><circle cx="917" cy="158" r="5" fill="#58A6FF" opacity="0.81"/><circle cx="845" cy="131" r="4" fill="#58A6FF" opacity="0.69"/><text x="44" y="193" fill="#58A6FF" font-family="monospace" font-size="12">BUILD · LEARN · EXPERIMENT · REPEAT</text></svg>