<svg xmlns="http://www.w3.org/2000/svg" width="1200" height="210" viewBox="0 0 1200 210"><rect width="100%" height="100%" rx="18" fill="#0D1117"/><rect x="1" y="1" width="1198" height="208" rx="18" fill="none" stroke="#30363D"/><text x="44" y="48" fill="#F0F6FC" font-family="Arial,sans-serif" font-size="23" font-weight="700">GITHUB // ACTIVITY</text><text x="44" y="78" fill="#8B949E" font-family="Arial,sans-serif" font-size="15">58 contributions · 2026 · 26 active days</text><text x="1040" y="48" fill="#58A6FF" font-family="Arial,sans-serif" font-size="14">● LIVE</text><line x1="44" y1="100" x2="1156" y2="100" stroke="#21262D"/><text x="44" y="130" fill="#8B949E" font-family="monospace" font-size="13">ACTIVITY SIGNAL</text><path d="M44 168 L64 159 L80 158 L96 162 L112 162 L128 164 L144 156 L160 160 L176 156 L192 158 L208 158 L224 158 L240 160 L256 166 L272 163 L288 164 L304 167 L320 168 L336 167 L352 159 L368 157 L384 156 L400 162 L416 160 L432 162 L448 167 L464 165 L480 159 L496 164 L512 159 L528 162 L544 168 L560 158 L576 167 L592 166 L608 165 L624 157 L640 166 L656 167 L672 162 L688 156 L704 162 L720 165 L736 161 L752 156 L768 166 L784 165 L800 167 L816 157 L832 166 L848 159 L864 160 L880 168 L896 164 L912 163 L928 161 L944 160 L960 156 L976 159 L992 165 L1008 160 L1024 160 L1040 165 L1056 157 L1072 159 L1088 168 L1104 160 L1120 166 L1136 167 L1152 156" fill="none" stroke="#58A6FF" stroke-width="2" opacity="0.35"/><circle cx="163" cy="128" r="6" fill="#58A6FF" opacity="0.9299999999999999"/><circle cx="619" cy="145" r="5" fill="#58A6FF" opacity="0.81"/><circle cx="102" cy="155" r="4" fill="#58A6FF" opacity="0.69"/><circle cx="445" cy="154" r="4" fill="#58A6FF" opacity="0.69"/><circle cx="576" cy="142" r="3" fill="#58A6FF" opacity="0.5700000000000001"/><circle cx="268" cy="164" r="4" fill="#58A6FF" opacity="0.69"/><circle cx="175" cy="158" r="4" fill="#58A6FF" opacity="0.69"/><circle cx="874" cy="155" r="4" fill="#58A6FF" opacity="0.69"/><circle cx="182" cy="159" r="3" fill="#58A6FF" opacity="0.5700000000000001"/><circle cx="631" cy="168" r="4" fill="#58A6FF" opacity="0.69"/><circle cx="623" cy="142" r="4" fill="#58A6FF" opacity="0.69"/><circle cx="80" cy="142" r="4" fill="#58A6FF" opacity="0.69"/><circle cx="367" cy="135" r="6" fill="#58A6FF" opacity="0.9299999999999999"/><circle cx="805" cy="138" r="3" fill="#58A6FF" opacity="0.5700000000000001"/><circle cx="756" cy="132" r="5" fill="#58A6FF" opacity="0.81"/><circle cx="594" cy="134" r="6" fill="#58A6FF" opacity="0.9299999999999999"/><circle cx="670" cy="150" r="3" fill="#58A6FF" opacity="0.5700000000000001"/><circle cx="1058" cy="144" r="4" fill="#58A6FF" opacity="0.69"/><circle cx="841" cy="131" r="4" fill="#58A6FF" opacity="0.69"/><circle cx="338" cy="144" r="6" fill="#58A6FF" opacity="0.9299999999999999"/><circle cx="997" cy="160" r="4" fill="#58A6FF" opacity="0.69"/><circle cx="854" cy="171" r="3" fill="#58A6FF" opacity="0.5700000000000001"/><circle cx="119" cy="135" r="3" fill="#58A6FF" opacity="0.5700000000000001"/><circle cx="801" cy="151" r="5" fill="#58A6FF" opacity="0.81"/><circle cx="214" cy="150" r="3" fill="#58A6FF" opacity="0.5700000000000001"/><circle cx="779" cy="170" r="6" fill="#58A6FF" opacity="0.9299999999999999"/><text x="44" y="193" fill="#58A6FF" font-family="monospace" font-size="12">BUILD · LEARN · EXPERIMENT · REPEAT</text></svg>